OpenSim_Sub09_EMGBaseline_GRF.mot
version=1
nRows=64
nColumns=19
inDegrees=no
endheader
time	lFx	lFy	lFz	lCOPx	lCOPy	lCOPz	rFx	rFy	rFz	rCOPx	rCOPy	rCOPz	lMx	lMy	lMz	rMx	rMy	rMz
0	11.45266710	363.54022168	24.89499561	0.62964972	0	-0.62218383	-0.29633668	375.30691032	-19.88777534	0.65321043	0	-0.37311228	0	-1.86111732	0	0	0.87682156	0
0.01000000	11.01819884	364.00567396	24.82294052	0.62928597	0	-0.62221646	-0.40005306	374.59789899	-20.09795455	0.65297416	0	-0.37328757	0	-1.80913977	0	0	1.01978636	0
0.02000000	10.83476959	364.53665926	24.79348613	0.62904095	0	-0.62221046	-0.44369907	373.79880994	-20.22584836	0.65282309	0	-0.37340651	0	-1.75805352	0	0	1.07822297	0
0.03000000	10.82028278	365.04803567	24.80224685	0.62892312	0	-0.62217837	-0.46262727	372.97371571	-20.30445894	0.65271968	0	-0.37345496	0	-1.70734950	0	0	1.07030463	0
0.04000000	10.87810808	365.44296277	24.82361023	0.62894380	0	-0.62210194	-0.48560386	372.15371148	-20.35590847	0.65261822	0	-0.37347092	0	-1.67271017	0	0	1.03423364	0
0.05000000	10.95283621	365.66851551	24.83178428	0.62895574	0	-0.62201227	-0.49381423	371.41074864	-20.40549520	0.65249706	0	-0.37350476	0	-1.65393771	0	0	1.01280131	-0.00000000
0.06000000	10.99352909	365.74737858	24.81836396	0.62888212	0	-0.62195746	-0.48630176	370.82885883	-20.43385568	0.65231164	0	-0.37355699	0	-1.63789665	0	0	1.02757385	0
0.07000000	10.98735976	365.66209336	24.80499581	0.62886636	0	-0.62191365	-0.45428319	370.40898856	-20.42947112	0.65203796	0	-0.37363458	0	-1.63940914	0	0	1.05504387	0
0.08000000	10.92322687	365.46872458	24.79734527	0.62891654	0	-0.62186798	-0.39745439	370.18649871	-20.40843177	0.65186510	0	-0.37370276	0	-1.64525571	0	0	1.07119323	0
0.09000000	10.83239023	365.31336744	24.81724794	0.62896905	0	-0.62184683	-0.34915531	370.06927108	-20.38291154	0.65179174	0	-0.37373935	0	-1.64887899	0	0	1.06686901	0
0.10000000	10.75604714	365.26407674	24.86108253	0.62899423	0	-0.62188291	-0.31308662	369.89739033	-20.37651272	0.65167406	0	-0.37376239	0	-1.65039372	0	0	1.04652281	0
0.11000000	10.70137482	365.22494808	24.88810037	0.62901623	0	-0.62196705	-0.26950782	369.67400650	-20.41900813	0.65147022	0	-0.37379017	0	-1.65167709	0	0	1.02467988	0
0.12000000	10.67578524	365.09995144	24.88318597	0.62903805	0	-0.62205407	-0.20714882	369.48123833	-20.48486477	0.65123569	0	-0.37383844	0	-1.66767388	0	0	1.00752700	0
0.13000000	10.68906512	364.87417020	24.85766485	0.62903711	0	-0.62207359	-0.11613482	369.38289400	-20.53126798	0.65112411	0	-0.37387945	0	-1.69803726	0	0	0.99039385	0
0.14000000	10.71986058	364.64081382	24.81476846	0.62893319	0	-0.62202979	0.00097871	369.38628239	-20.53374733	0.65112838	0	-0.37388569	0	-1.70783614	0	0	0.96993744	-0.00000000
0.15000000	10.73081998	364.53231200	24.76433210	0.62887487	0	-0.62197912	0.11350718	369.49237219	-20.51656806	0.65109399	0	-0.37385033	0	-1.68988314	0	0	0.95807170	0
0.16000000	10.72153545	364.65020151	24.73669437	0.62896424	0	-0.62197119	0.15997004	369.69160112	-20.48441073	0.65098456	0	-0.37380065	0	-1.67068075	0	0	0.96419448	-0.00000000
0.17000000	10.67994301	365.00099679	24.73814515	0.62923009	0	-0.62205024	0.10593301	369.93559592	-20.43476632	0.65087849	0	-0.37374993	0	-1.65745337	0	0	0.98664976	0.00000000
0.18000000	10.58634888	365.47601264	24.78067570	0.62958076	0	-0.62221636	-0.02057614	370.09843305	-20.40330495	0.65085365	0	-0.37372692	0	-1.64207246	0	0	1.01630515	0
0.19000000	10.47451816	365.91702177	24.85941932	0.62988790	0	-0.62243362	-0.17414464	370.09305987	-20.39725260	0.65095550	0	-0.37374555	0	-1.64127066	0	0	1.04872034	0
0.20000000	10.38916455	366.21061523	24.93719080	0.63012318	0	-0.62264148	-0.31585587	369.97416833	-20.40259984	0.65120440	0	-0.37377203	0	-1.65260762	0	0	1.07413136	0
0.21000000	10.33289048	366.33682274	24.98933912	0.63031664	0	-0.62278327	-0.42136262	369.79436487	-20.42379548	0.65145941	0	-0.37378976	0	-1.66243371	0	0	1.07666578	0
0.22000000	10.30383509	366.36978646	25.03347765	0.63054609	0	-0.62284183	-0.45497231	369.57908815	-20.46474718	0.65168216	0	-0.37380680	0	-1.67218033	0	0	1.04908580	0
0.23000000	10.29610941	366.36209871	25.07089455	0.63087086	0	-0.62286891	-0.43868001	369.36670403	-20.51528037	0.65184520	0	-0.37381488	0	-1.67843361	0	0	1.01697708	0.00000000
0.24000000	10.28300915	366.40224966	25.11207214	0.63131186	0	-0.62292840	-0.39599127	369.23162918	-20.55165096	0.65191526	0	-0.37377771	0	-1.68611732	0	0	1.00979075	0
0.25000000	10.23392842	366.47243145	25.14049152	0.63186051	0	-0.62306129	-0.32617453	369.20550837	-20.58503904	0.65199661	0	-0.37371441	0	-1.70572175	0	0	1.02641309	0
0.26000000	10.14551592	366.56667690	25.15833293	0.63240274	0	-0.62325668	-0.29011926	369.25436480	-20.62817556	0.65213022	0	-0.37367852	0	-1.72554052	0	0	1.06747069	0
0.27000000	10.03615005	366.70837154	25.20080836	0.63282227	0	-0.62346559	-0.34347596	369.31170967	-20.65621585	0.65220270	0	-0.37367832	0	-1.73863924	0	0	1.11117984	-0.00000000
0.28000000	9.91930328	366.87649395	25.28047894	0.63319299	0	-0.62365827	-0.47539700	369.29942554	-20.64636723	0.65230545	0	-0.37368567	0	-1.75649989	0	0	1.11957886	0
0.29000000	9.79623919	366.92736154	25.36843868	0.63362085	0	-0.62383406	-0.65295020	369.20221467	-20.62254630	0.65252103	0	-0.37365886	0	-1.78145991	0	0	1.09105628	0.00000000
0.30000000	9.66741528	366.81996187	25.46705993	0.63405832	0	-0.62399832	-0.84706067	369.07309605	-20.61708849	0.65283351	0	-0.37358949	0	-1.81249488	0	0	1.05462381	-0.00000000
0.31000000	9.54726219	366.58821630	25.56921655	0.63442813	0	-0.62415161	-1.02552428	368.98336621	-20.64363321	0.65317774	0	-0.37352102	0	-1.84842846	0	0	1.02494128	0
0.32000000	9.41651823	366.31554457	25.67747009	0.63476585	0	-0.62429939	-1.16338666	368.94440027	-20.69655917	0.65348517	0	-0.37347512	0	-1.87873650	0	0	1.01112530	0
0.33000000	9.26037351	366.13976497	25.80751099	0.63510476	0	-0.62445221	-1.26908147	368.95486342	-20.74659616	0.65378483	0	-0.37342717	0	-1.89935208	0	0	1.00619159	-0.00000000
0.34000000	9.08968365	366.13884766	25.93876908	0.63549914	0	-0.62462902	-1.35114104	368.94557730	-20.77770722	0.65412935	0	-0.37337429	0	-1.91444870	0	0	0.99588333	0
0.35000000	8.91510927	366.25130551	26.02508385	0.63605657	0	-0.62482184	-1.44168564	368.81320663	-20.80060951	0.65448967	0	-0.37331163	0	-1.93575727	0	0	0.98767272	0
0.36000000	8.73915173	366.34077335	26.04960486	0.63671808	0	-0.62502634	-1.55557838	368.57730848	-20.81336394	0.65493783	0	-0.37321656	0	-1.96897726	0	0	0.97093955	-0.00000000
0.37000000	8.56234242	366.33806722	26.03705295	0.63736779	0	-0.62523873	-1.67247969	368.30255899	-20.81006231	0.65541020	0	-0.37310237	0	-2.00020147	0	0	0.94778889	0
0.38000000	8.39432305	366.20320500	26.02100109	0.63796212	0	-0.62545072	-1.79481916	367.99668536	-20.80386547	0.65572190	0	-0.37300440	0	-2.02851817	0	0	0.93361672	0
0.39000000	8.24173395	365.94549236	26.03148762	0.63844308	0	-0.62565096	-1.91239932	367.71694150	-20.80878019	0.65589136	0	-0.37293512	0	-2.06562263	0	0	0.92249677	0
0.40000000	8.11813447	365.63670860	26.05117363	0.63883111	0	-0.62585715	-1.99610755	367.48060262	-20.82666251	0.65608814	0	-0.37290402	0	-2.10803744	0	0	0.90900350	-0.00000000
0.41000000	8.01638153	365.36731946	26.05337488	0.63918521	0	-0.62607854	-2.05933954	367.32055881	-20.84628171	0.65633168	0	-0.37289657	0	-2.14200977	0	0	0.91635552	-0.00000000
0.42000000	7.92124422	365.15652726	26.06664789	0.63954057	0	-0.62625657	-2.16039642	367.26417431	-20.85594040	0.65666258	0	-0.37288883	0	-2.16120612	0	0	0.92917070	0.00000000
0.43000000	7.83961252	364.98199652	26.10439212	0.63989917	0	-0.62637591	-2.32977761	367.27347634	-20.87711807	0.65709105	0	-0.37286188	0	-2.18167687	0	0	0.92941021	0.00000000
0.44000000	7.77422621	364.79990360	26.13346953	0.64022175	0	-0.62647597	-2.56340075	367.33606700	-20.95579458	0.65764757	0	-0.37280206	0	-2.20428563	0	0	0.91900340	-0.00000000
0.45000000	7.72664256	364.61975920	26.12640772	0.64041770	0	-0.62656807	-2.83747648	367.37793684	-21.05457999	0.65826660	0	-0.37268414	0	-2.22062830	0	0	0.91545187	0.00000000
0.46000000	7.71305583	364.53174528	26.10235335	0.64046564	0	-0.62663023	-3.09584966	367.36954805	-21.12541806	0.65888482	0	-0.37251096	0	-2.23093629	0	0	0.91755637	-0.00000000
0.47000000	7.71501796	364.53559357	26.06117086	0.64041367	0	-0.62664964	-3.31445977	367.26432679	-21.16046501	0.65938508	0	-0.37234536	0	-2.23840878	0	0	0.91752179	0
0.48000000	7.70309217	364.58456016	26.01573333	0.64028785	0	-0.62664860	-3.46949042	367.05090219	-21.14384086	0.65973040	0	-0.37222524	0	-2.24255289	0	0	0.90871955	-0.00000000
0.49000000	7.69104973	364.63686161	25.98106096	0.64009030	0	-0.62662363	-3.53870430	366.77556616	-21.09633065	0.65989867	0	-0.37216756	0	-2.23983700	0	0	0.89545681	-0.00000000
0.50000000	7.67951816	364.68948267	25.94040318	0.63987278	0	-0.62653410	-3.51662292	366.57400221	-21.05604930	0.66000067	0	-0.37214748	0	-2.21553948	0	0	0.88533458	-0.00000000
0.51000000	7.66864491	364.79341400	25.90469245	0.63970444	0	-0.62639223	-3.41810313	366.54612034	-21.02979149	0.66014739	0	-0.37214180	0	-2.17976413	0	0	0.88373382	-0.00000000
0.52000000	7.67673154	364.94203362	25.86826795	0.63953405	0	-0.62623853	-3.27460541	366.70883428	-21.02282207	0.66033303	0	-0.37215557	0	-2.15780135	0	0	0.89373880	-0.00000000
0.53000000	7.72498869	365.03303667	25.81415396	0.63939141	0	-0.62610132	-3.14406103	366.99271516	-21.05677415	0.66037713	0	-0.37219109	0	-2.15852231	0	0	0.92305779	0.00000000
0.54000000	7.81246354	365.04340750	25.75701565	0.63936322	0	-0.62599827	-3.07499704	367.32959427	-21.11595801	0.66028339	0	-0.37221733	0	-2.15551945	0	0	0.95690377	0
0.55000000	7.93157350	365.00287514	25.69853651	0.63932304	0	-0.62591196	-3.05770565	367.63417260	-21.16786491	0.66014306	0	-0.37224808	0	-2.12440144	0	0	0.97644608	0.00000000
0.56000000	8.10150946	364.90887737	25.62176836	0.63911257	0	-0.62580976	-3.07797136	367.92786347	-21.19451174	0.66010162	0	-0.37229056	0	-2.07965511	0	0	0.97572872	0.00000000
0.57000000	8.35039310	364.73052748	25.50797094	0.63871683	0	-0.62565909	-3.12492009	368.24850882	-21.19852383	0.66012993	0	-0.37233844	0	-2.04714324	0	0	0.95455347	0.00000000
0.58000000	8.65550004	364.49422404	25.36053129	0.63819037	0	-0.62544454	-3.16231933	368.58115221	-21.19388194	0.66013527	0	-0.37241019	0	-2.01918766	0	0	0.93357125	0
0.59000000	8.96946131	364.32197629	25.19900636	0.63761744	0	-0.62520083	-3.14932180	368.86822276	-21.19732089	0.66006353	0	-0.37251507	0	-1.98607062	0	0	0.92973734	0.00000000
0.60000000	9.23473935	364.33286840	25.07277153	0.63707458	0	-0.62497303	-3.11070128	369.08737512	-21.21644934	0.65984233	0	-0.37259796	0	-1.95429131	0	0	0.93498117	0.00000000
0.61000000	9.42515790	364.49486315	24.99179601	0.63657813	0	-0.62478299	-3.05643524	369.25995539	-21.23316969	0.65947366	0	-0.37265942	0	-1.93860892	0	0	0.95024181	0
0.62000000	9.53095439	364.64220847	24.93045865	0.63609614	0	-0.62461828	-2.97964468	369.36090566	-21.24223986	0.65893058	0	-0.37272852	0	-1.93818778	0	0	0.97114816	0
0.63000000	9.54497792	364.75489979	24.91267541	0.63562048	0	-0.62444148	-2.86442991	369.41027105	-21.23388402	0.65826118	0	-0.37278718	0	-1.93946985	0	0	0.98272855	0
